<?xml version="1.0" encoding="UTF-8" standalone="no"?><svg xmlns="http://www.w3.org/2000/svg" xmlns:xlink="http://www.w3.org/1999/xlink" contentStyleType="text/css" height="170px" preserveAspectRatio="none" style="width:378px;height:170px;background:#FFFFFF;" version="1.1" viewBox="0 0 378 170" width="378px" zoomAndPan="magnify"><defs/><g><!--MD5=[34ac46fbfd162586791b65ed15756cf8]
class Intake--><g id="elem_Intake"><rect codeLine="1" fill="#F1F1F1" height="48" id="Intake" rx="2.5" ry="2.5" style="stroke:#181818;stroke-width:0.5;" width="74" x="7" y="7"/><ellipse cx="22" cy="23" fill="#ADD1B2" rx="11" ry="11" style="stroke:#181818;stroke-width:1.0;"/><path d="M21.4688,29.9219 Q19.7188,29.9219 18.5781,29.1875 Q17.4531,28.4375 16.8906,27.0938 Q16.3438,25.7344 16.3438,23.9375 Q16.3438,21.9063 17,20.4531 Q17.6563,19 18.9375,18.2188 Q20.2188,17.4375 22.0938,17.4375 Q22.9844,17.4375 23.6563,17.625 Q24.3281,17.7969 25.0156,18.1406 L24.2031,20.1563 Q23.5781,19.8438 23.0313,19.7188 Q22.5,19.5938 22.0156,19.5938 Q20.8438,19.5938 20.1406,20.125 Q19.4375,20.6563 19.1406,21.6094 Q18.8438,22.5625 18.8438,23.8281 Q18.8438,25.8438 19.5625,26.8125 Q20.2813,27.7656 21.875,27.7656 Q22.4688,27.7656 23.0938,27.6094 Q23.7188,27.4531 24.5469,27.0781 L24.5469,29.2969 Q23.8125,29.6094 23.0156,29.7656 Q22.2344,29.9219 21.4688,29.9219 Z " fill="#000000"/><text fill="#000000" font-family="sans-serif" font-size="14" lengthAdjust="spacing" textLength="42" x="36" y="28.432">Intake</text><line style="stroke:#181818;stroke-width:0.5;" x1="8" x2="80" y1="39" y2="39"/><line style="stroke:#181818;stroke-width:0.5;" x1="8" x2="80" y1="47" y2="47"/></g><!--MD5=[206f5b38895a0bc1b7f5a5a362551db6]
class IntakeNode--><g id="elem_IntakeNode"><rect codeLine="2" fill="#F1F1F1" height="48" id="IntakeNode" rx="2.5" ry="2.5" style="stroke:#181818;stroke-width:0.5;" width="110" x="116" y="7"/><ellipse cx="131" cy="23" fill="#ADD1B2" rx="11" ry="11" style="stroke:#181818;stroke-width:1.0;"/><path d="M130.4688,29.9219 Q128.7188,29.9219 127.5781,29.1875 Q126.4531,28.4375 125.8906,27.0938 Q125.3438,25.7344 125.3438,23.9375 Q125.3438,21.9063 126,20.4531 Q126.6563,19 127.9375,18.2188 Q129.2188,17.4375 131.0938,17.4375 Q131.9844,17.4375 132.6563,17.625 Q133.3281,17.7969 134.0156,18.1406 L133.2031,20.1563 Q132.5781,19.8438 132.0313,19.7188 Q131.5,19.5938 131.0156,19.5938 Q129.8438,19.5938 129.1406,20.125 Q128.4375,20.6563 128.1406,21.6094 Q127.8438,22.5625 127.8438,23.8281 Q127.8438,25.8438 128.5625,26.8125 Q129.2813,27.7656 130.875,27.7656 Q131.4688,27.7656 132.0938,27.6094 Q132.7188,27.4531 133.5469,27.0781 L133.5469,29.2969 Q132.8125,29.6094 132.0156,29.7656 Q131.2344,29.9219 130.4688,29.9219 Z " fill="#000000"/><text fill="#000000" font-family="sans-serif" font-size="14" lengthAdjust="spacing" textLength="78" x="145" y="28.432">IntakeNode</text><line style="stroke:#181818;stroke-width:0.5;" x1="117" x2="225" y1="39" y2="39"/><line style="stroke:#181818;stroke-width:0.5;" x1="117" x2="225" y1="47" y2="47"/></g><!--MD5=[cff4d1dfabf1e80e04b31c5c669534b5]
class Day--><g id="elem_Day"><rect codeLine="3" fill="#F1F1F1" height="48" id="Day" rx="2.5" ry="2.5" style="stroke:#181818;stroke-width:0.5;" width="57" x="142.5" y="115"/><ellipse cx="157.5" cy="131" fill="#ADD1B2" rx="11" ry="11" style="stroke:#181818;stroke-width:1.0;"/><path d="M156.9688,137.9219 Q155.2188,137.9219 154.0781,137.1875 Q152.9531,136.4375 152.3906,135.0938 Q151.8438,133.7344 151.8438,131.9375 Q151.8438,129.9063 152.5,128.4531 Q153.1563,127 154.4375,126.2188 Q155.7188,125.4375 157.5938,125.4375 Q158.4844,125.4375 159.1563,125.625 Q159.8281,125.7969 160.5156,126.1406 L159.7031,128.1563 Q159.0781,127.8438 158.5313,127.7188 Q158,127.5938 157.5156,127.5938 Q156.3438,127.5938 155.6406,128.125 Q154.9375,128.6563 154.6406,129.6094 Q154.3438,130.5625 154.3438,131.8281 Q154.3438,133.8438 155.0625,134.8125 Q155.7813,135.7656 157.375,135.7656 Q157.9688,135.7656 158.5938,135.6094 Q159.2188,135.4531 160.0469,135.0781 L160.0469,137.2969 Q159.3125,137.6094 158.5156,137.7656 Q157.7344,137.9219 156.9688,137.9219 Z " fill="#000000"/><text fill="#000000" font-family="sans-serif" font-size="14" lengthAdjust="spacing" textLength="25" x="171.5" y="136.432">Day</text><line style="stroke:#181818;stroke-width:0.5;" x1="143.5" x2="198.5" y1="147" y2="147"/><line style="stroke:#181818;stroke-width:0.5;" x1="143.5" x2="198.5" y1="155" y2="155"/></g><g id="elem_GMN5"><path d="M235,116.5 L235,135 L199.62,139 L235,143 L235,161.912 A0,0 0 0 0 235,161.912 L371,161.912 A0,0 0 0 0 371,161.912 L371,126.5 L361,116.5 L235,116.5 A0,0 0 0 0 235,116.5 " fill="#FEFFDD" style="stroke:#181818;stroke-width:0.5;"/><path d="M361,116.5 L361,126.5 L371,126.5 L361,116.5 " fill="#FEFFDD" style="stroke:#181818;stroke-width:0.5;"/><text fill="#000000" font-family="sans-serif" font-size="13" lengthAdjust="spacing" textLength="97" x="241" y="135.397">Responsable del</text><text fill="#000000" font-family="sans-serif" font-size="13" lengthAdjust="spacing" textLength="115" x="241" y="153.103">CRUD de alimentos</text></g><!--MD5=[9bdd8fbc51aa22299f2f32f110987633]
reverse link Intake to IntakeNode--><g id="link_Intake_IntakeNode"><path codeLine="10" d="M86.36,31 C96.22,31 106.07,31 115.93,31 " fill="none" id="Intake-backto-IntakeNode" style="stroke:#181818;stroke-width:1.0;"/><polygon fill="#181818" points="81.21,31,90.21,35,86.21,31,90.21,27,81.21,31" style="stroke:#181818;stroke-width:1.0;"/></g><!--MD5=[55e250a28d19fb227111a9eb8ae48cfb]
link IntakeNode to IntakeNode--><g id="link_IntakeNode_IntakeNode"><path codeLine="11" d="M226.37,10.75 C245.53,10.54 261,17.29 261,31 C261,43.43 248.29,50.13 231.65,51.12 " fill="none" id="IntakeNode-to-IntakeNode" style="stroke:#181818;stroke-width:1.0;"/><polygon fill="#181818" points="226.37,51.25,235.4591,55.0433,231.3687,51.1357,235.2762,47.0454,226.37,51.25" style="stroke:#181818;stroke-width:1.0;"/></g><!--MD5=[f41e6cedf446aa4a304b5b2307ee1f76]
reverse link IntakeNode to Day--><g id="link_IntakeNode_Day"><path codeLine="12" d="M171,60.13 C171,77.15 171,98.6 171,114.68 " fill="none" id="IntakeNode-backto-Day" style="stroke:#181818;stroke-width:1.0;"/><polygon fill="#181818" points="171,55,167,64,171,60,175,64,171,55" style="stroke:#181818;stroke-width:1.0;"/></g><!--MD5=[1ea1a59633c0e6b6964c543bd25c99ef]
@startuml
class Intake
class IntakeNode
class Day

note right
    Responsable del
    CRUD de alimentos
end note

Intake <- -r- - IntakeNode
IntakeNode - -> IntakeNode
Day -u-> IntakeNode
@enduml

PlantUML version 1.2022.7(Mon Aug 22 19:01:30 CEST 2022)
(GPL source distribution)
Java Runtime: OpenJDK Runtime Environment
JVM: OpenJDK 64-Bit Server VM
Default Encoding: UTF-8
Language: es
Country: ES
--></g></svg>