<?xml version="1.0" encoding="UTF-8" standalone="no"?><svg xmlns="http://www.w3.org/2000/svg" xmlns:xlink="http://www.w3.org/1999/xlink" contentStyleType="text/css" height="170px" preserveAspectRatio="none" style="width:371px;height:170px;background:#FFFFFF;" version="1.1" viewBox="0 0 371 170" width="371px" zoomAndPan="magnify"><defs/><g><!--MD5=[5b4460e97222b45c9cf25eacd4639dbc]
class Food--><g id="elem_Food"><rect codeLine="1" fill="#F1F1F1" height="48" id="Food" rx="2.5" ry="2.5" style="stroke:#181818;stroke-width:0.5;" width="64" x="7" y="7"/><ellipse cx="22" cy="23" fill="#ADD1B2" rx="11" ry="11" style="stroke:#181818;stroke-width:1.0;"/><path d="M21.4688,29.9219 Q19.7188,29.9219 18.5781,29.1875 Q17.4531,28.4375 16.8906,27.0938 Q16.3438,25.7344 16.3438,23.9375 Q16.3438,21.9063 17,20.4531 Q17.6563,19 18.9375,18.2188 Q20.2188,17.4375 22.0938,17.4375 Q22.9844,17.4375 23.6563,17.625 Q24.3281,17.7969 25.0156,18.1406 L24.2031,20.1563 Q23.5781,19.8438 23.0313,19.7188 Q22.5,19.5938 22.0156,19.5938 Q20.8438,19.5938 20.1406,20.125 Q19.4375,20.6563 19.1406,21.6094 Q18.8438,22.5625 18.8438,23.8281 Q18.8438,25.8438 19.5625,26.8125 Q20.2813,27.7656 21.875,27.7656 Q22.4688,27.7656 23.0938,27.6094 Q23.7188,27.4531 24.5469,27.0781 L24.5469,29.2969 Q23.8125,29.6094 23.0156,29.7656 Q22.2344,29.9219 21.4688,29.9219 Z " fill="#000000"/><text fill="#000000" font-family="sans-serif" font-size="14" lengthAdjust="spacing" textLength="32" x="36" y="28.432">Food</text><line style="stroke:#181818;stroke-width:0.5;" x1="8" x2="70" y1="39" y2="39"/><line style="stroke:#181818;stroke-width:0.5;" x1="8" x2="70" y1="47" y2="47"/></g><!--MD5=[16eb050925662487e8c021c14a80f5e0]
class FoodNode--><g id="elem_FoodNode"><rect codeLine="2" fill="#F1F1F1" height="48" id="FoodNode" rx="2.5" ry="2.5" style="stroke:#181818;stroke-width:0.5;" width="100" x="106" y="7"/><ellipse cx="121" cy="23" fill="#ADD1B2" rx="11" ry="11" style="stroke:#181818;stroke-width:1.0;"/><path d="M120.4688,29.9219 Q118.7188,29.9219 117.5781,29.1875 Q116.4531,28.4375 115.8906,27.0938 Q115.3438,25.7344 115.3438,23.9375 Q115.3438,21.9063 116,20.4531 Q116.6563,19 117.9375,18.2188 Q119.2188,17.4375 121.0938,17.4375 Q121.9844,17.4375 122.6563,17.625 Q123.3281,17.7969 124.0156,18.1406 L123.2031,20.1563 Q122.5781,19.8438 122.0313,19.7188 Q121.5,19.5938 121.0156,19.5938 Q119.8438,19.5938 119.1406,20.125 Q118.4375,20.6563 118.1406,21.6094 Q117.8438,22.5625 117.8438,23.8281 Q117.8438,25.8438 118.5625,26.8125 Q119.2813,27.7656 120.875,27.7656 Q121.4688,27.7656 122.0938,27.6094 Q122.7188,27.4531 123.5469,27.0781 L123.5469,29.2969 Q122.8125,29.6094 122.0156,29.7656 Q121.2344,29.9219 120.4688,29.9219 Z " fill="#000000"/><text fill="#000000" font-family="sans-serif" font-size="14" lengthAdjust="spacing" textLength="68" x="135" y="28.432">FoodNode</text><line style="stroke:#181818;stroke-width:0.5;" x1="107" x2="205" y1="39" y2="39"/><line style="stroke:#181818;stroke-width:0.5;" x1="107" x2="205" y1="47" y2="47"/></g><!--MD5=[34ac46fbfd162586791b65ed15756cf8]
class Intake--><g id="elem_Intake"><rect codeLine="3" fill="#F1F1F1" height="48" id="Intake" rx="2.5" ry="2.5" style="stroke:#181818;stroke-width:0.5;" width="74" x="119" y="115"/><ellipse cx="134" cy="131" fill="#ADD1B2" rx="11" ry="11" style="stroke:#181818;stroke-width:1.0;"/><path d="M133.4688,137.9219 Q131.7188,137.9219 130.5781,137.1875 Q129.4531,136.4375 128.8906,135.0938 Q128.3438,133.7344 128.3438,131.9375 Q128.3438,129.9063 129,128.4531 Q129.6563,127 130.9375,126.2188 Q132.2188,125.4375 134.0938,125.4375 Q134.9844,125.4375 135.6563,125.625 Q136.3281,125.7969 137.0156,126.1406 L136.2031,128.1563 Q135.5781,127.8438 135.0313,127.7188 Q134.5,127.5938 134.0156,127.5938 Q132.8438,127.5938 132.1406,128.125 Q131.4375,128.6563 131.1406,129.6094 Q130.8438,130.5625 130.8438,131.8281 Q130.8438,133.8438 131.5625,134.8125 Q132.2813,135.7656 133.875,135.7656 Q134.4688,135.7656 135.0938,135.6094 Q135.7188,135.4531 136.5469,135.0781 L136.5469,137.2969 Q135.8125,137.6094 135.0156,137.7656 Q134.2344,137.9219 133.4688,137.9219 Z " fill="#000000"/><text fill="#000000" font-family="sans-serif" font-size="14" lengthAdjust="spacing" textLength="42" x="148" y="136.432">Intake</text><line style="stroke:#181818;stroke-width:0.5;" x1="120" x2="192" y1="147" y2="147"/><line style="stroke:#181818;stroke-width:0.5;" x1="120" x2="192" y1="155" y2="155"/></g><g id="elem_GMN5"><path d="M228,116.5 L228,135 L193.19,139 L228,143 L228,161.912 A0,0 0 0 0 228,161.912 L364,161.912 A0,0 0 0 0 364,161.912 L364,126.5 L354,116.5 L228,116.5 A0,0 0 0 0 228,116.5 " fill="#FEFFDD" style="stroke:#181818;stroke-width:0.5;"/><path d="M354,116.5 L354,126.5 L364,126.5 L354,116.5 " fill="#FEFFDD" style="stroke:#181818;stroke-width:0.5;"/><text fill="#000000" font-family="sans-serif" font-size="13" lengthAdjust="spacing" textLength="97" x="234" y="135.397">Responsable del</text><text fill="#000000" font-family="sans-serif" font-size="13" lengthAdjust="spacing" textLength="115" x="234" y="153.103">CRUD de alimentos</text></g><!--MD5=[c30324965b7c63efb4fb531fc71bcaa8]
reverse link Food to FoodNode--><g id="link_Food_FoodNode"><path codeLine="10" d="M76.55,31 C86.3,31 96.05,31 105.8,31 " fill="none" id="Food-backto-FoodNode" style="stroke:#181818;stroke-width:1.0;"/><polygon fill="#181818" points="71.45,31,80.45,35,76.45,31,80.45,27,71.45,31" style="stroke:#181818;stroke-width:1.0;"/></g><!--MD5=[7f2bd370bc81ad3ac2822810b21f233d]
link FoodNode to FoodNode--><g id="link_FoodNode_FoodNode"><path codeLine="11" d="M206.19,10.81 C225.24,10.03 241,16.76 241,31 C241,43.9 228.06,50.64 211.45,51.21 " fill="none" id="FoodNode-to-FoodNode" style="stroke:#181818;stroke-width:1.0;"/><polygon fill="#181818" points="206.19,51.19,215.167,55.2414,211.1899,51.2186,215.2127,47.2415,206.19,51.19" style="stroke:#181818;stroke-width:1.0;"/></g><!--MD5=[0de4b374bbed1f1cc985b83c687be54f]
reverse link FoodNode to Intake--><g id="link_FoodNode_Intake"><path codeLine="12" d="M156,60.13 C156,77.15 156,98.6 156,114.68 " fill="none" id="FoodNode-backto-Intake" style="stroke:#181818;stroke-width:1.0;"/><polygon fill="#181818" points="156,55,152,64,156,60,160,64,156,55" style="stroke:#181818;stroke-width:1.0;"/></g><!--MD5=[04c09f51896e2d1e40daefae21a4a44c]
@startuml
class Food
class FoodNode
class Intake

note right
    Responsable del
    CRUD de alimentos
end note

Food <- -r- - FoodNode
FoodNode - -> FoodNode
Intake -u-> FoodNode

@enduml

PlantUML version 1.2022.7(Mon Aug 22 19:01:30 CEST 2022)
(GPL source distribution)
Java Runtime: OpenJDK Runtime Environment
JVM: OpenJDK 64-Bit Server VM
Default Encoding: UTF-8
Language: es
Country: ES
--></g></svg>