<?xml version="1.0" encoding="UTF-8" standalone="no"?><svg xmlns="http://www.w3.org/2000/svg" xmlns:xlink="http://www.w3.org/1999/xlink" contentStyleType="text/css" height="170px" preserveAspectRatio="none" style="width:335px;height:170px;background:#FFFFFF;" version="1.1" viewBox="0 0 335 170" width="335px" zoomAndPan="magnify"><defs/><g><!--MD5=[cff4d1dfabf1e80e04b31c5c669534b5]
class Day--><g id="elem_Day"><rect codeLine="1" fill="#F1F1F1" height="48" id="Day" rx="2.5" ry="2.5" style="stroke:#181818;stroke-width:0.5;" width="57" x="7" y="7"/><ellipse cx="22" cy="23" fill="#ADD1B2" rx="11" ry="11" style="stroke:#181818;stroke-width:1.0;"/><path d="M21.4688,29.9219 Q19.7188,29.9219 18.5781,29.1875 Q17.4531,28.4375 16.8906,27.0938 Q16.3438,25.7344 16.3438,23.9375 Q16.3438,21.9063 17,20.4531 Q17.6563,19 18.9375,18.2188 Q20.2188,17.4375 22.0938,17.4375 Q22.9844,17.4375 23.6563,17.625 Q24.3281,17.7969 25.0156,18.1406 L24.2031,20.1563 Q23.5781,19.8438 23.0313,19.7188 Q22.5,19.5938 22.0156,19.5938 Q20.8438,19.5938 20.1406,20.125 Q19.4375,20.6563 19.1406,21.6094 Q18.8438,22.5625 18.8438,23.8281 Q18.8438,25.8438 19.5625,26.8125 Q20.2813,27.7656 21.875,27.7656 Q22.4688,27.7656 23.0938,27.6094 Q23.7188,27.4531 24.5469,27.0781 L24.5469,29.2969 Q23.8125,29.6094 23.0156,29.7656 Q22.2344,29.9219 21.4688,29.9219 Z " fill="#000000"/><text fill="#000000" font-family="sans-serif" font-size="14" lengthAdjust="spacing" textLength="25" x="36" y="28.432">Day</text><line style="stroke:#181818;stroke-width:0.5;" x1="8" x2="63" y1="39" y2="39"/><line style="stroke:#181818;stroke-width:0.5;" x1="8" x2="63" y1="47" y2="47"/></g><!--MD5=[b02e042780651084681e98ca6a178bb8]
class DayNode--><g id="elem_DayNode"><rect codeLine="2" fill="#F1F1F1" height="48" id="DayNode" rx="2.5" ry="2.5" style="stroke:#181818;stroke-width:0.5;" width="93" x="99" y="7"/><ellipse cx="114" cy="23" fill="#ADD1B2" rx="11" ry="11" style="stroke:#181818;stroke-width:1.0;"/><path d="M113.4688,29.9219 Q111.7188,29.9219 110.5781,29.1875 Q109.4531,28.4375 108.8906,27.0938 Q108.3438,25.7344 108.3438,23.9375 Q108.3438,21.9063 109,20.4531 Q109.6563,19 110.9375,18.2188 Q112.2188,17.4375 114.0938,17.4375 Q114.9844,17.4375 115.6563,17.625 Q116.3281,17.7969 117.0156,18.1406 L116.2031,20.1563 Q115.5781,19.8438 115.0313,19.7188 Q114.5,19.5938 114.0156,19.5938 Q112.8438,19.5938 112.1406,20.125 Q111.4375,20.6563 111.1406,21.6094 Q110.8438,22.5625 110.8438,23.8281 Q110.8438,25.8438 111.5625,26.8125 Q112.2813,27.7656 113.875,27.7656 Q114.4688,27.7656 115.0938,27.6094 Q115.7188,27.4531 116.5469,27.0781 L116.5469,29.2969 Q115.8125,29.6094 115.0156,29.7656 Q114.2344,29.9219 113.4688,29.9219 Z " fill="#000000"/><text fill="#000000" font-family="sans-serif" font-size="14" lengthAdjust="spacing" textLength="61" x="128" y="28.432">DayNode</text><line style="stroke:#181818;stroke-width:0.5;" x1="100" x2="191" y1="39" y2="39"/><line style="stroke:#181818;stroke-width:0.5;" x1="100" x2="191" y1="47" y2="47"/></g><!--MD5=[fb9e5f169573a395ff276caa9ddf68de]
class Diet--><g id="elem_Diet"><rect codeLine="3" fill="#F1F1F1" height="48" id="Diet" rx="2.5" ry="2.5" style="stroke:#181818;stroke-width:0.5;" width="59" x="116" y="115"/><ellipse cx="131" cy="131" fill="#ADD1B2" rx="11" ry="11" style="stroke:#181818;stroke-width:1.0;"/><path d="M130.4688,137.9219 Q128.7188,137.9219 127.5781,137.1875 Q126.4531,136.4375 125.8906,135.0938 Q125.3438,133.7344 125.3438,131.9375 Q125.3438,129.9063 126,128.4531 Q126.6563,127 127.9375,126.2188 Q129.2188,125.4375 131.0938,125.4375 Q131.9844,125.4375 132.6563,125.625 Q133.3281,125.7969 134.0156,126.1406 L133.2031,128.1563 Q132.5781,127.8438 132.0313,127.7188 Q131.5,127.5938 131.0156,127.5938 Q129.8438,127.5938 129.1406,128.125 Q128.4375,128.6563 128.1406,129.6094 Q127.8438,130.5625 127.8438,131.8281 Q127.8438,133.8438 128.5625,134.8125 Q129.2813,135.7656 130.875,135.7656 Q131.4688,135.7656 132.0938,135.6094 Q132.7188,135.4531 133.5469,135.0781 L133.5469,137.2969 Q132.8125,137.6094 132.0156,137.7656 Q131.2344,137.9219 130.4688,137.9219 Z " fill="#000000"/><text fill="#000000" font-family="sans-serif" font-size="14" lengthAdjust="spacing" textLength="27" x="145" y="136.432">Diet</text><line style="stroke:#181818;stroke-width:0.5;" x1="117" x2="174" y1="147" y2="147"/><line style="stroke:#181818;stroke-width:0.5;" x1="117" x2="174" y1="155" y2="155"/></g><g id="elem_GMN5"><path d="M210.5,116.5 L210.5,135 L175.05,139 L210.5,143 L210.5,161.912 A0,0 0 0 0 210.5,161.912 L328.5,161.912 A0,0 0 0 0 328.5,161.912 L328.5,126.5 L318.5,116.5 L210.5,116.5 A0,0 0 0 0 210.5,116.5 " fill="#FEFFDD" style="stroke:#181818;stroke-width:0.5;"/><path d="M318.5,116.5 L318.5,126.5 L328.5,126.5 L318.5,116.5 " fill="#FEFFDD" style="stroke:#181818;stroke-width:0.5;"/><text fill="#000000" font-family="sans-serif" font-size="13" lengthAdjust="spacing" textLength="97" x="216.5" y="135.397">Responsable del</text><text fill="#000000" font-family="sans-serif" font-size="13" lengthAdjust="spacing" textLength="80" x="216.5" y="153.103">CRUD de días</text></g><!--MD5=[b216a83da5cd2ee9915f4729f21a3015]
reverse link Day to DayNode--><g id="link_Day_DayNode"><path codeLine="10" d="M69.42,31 C79.24,31 89.05,31 98.87,31 " fill="none" id="Day-backto-DayNode" style="stroke:#181818;stroke-width:1.0;"/><polygon fill="#181818" points="64.29,31,73.29,35,69.29,31,73.29,27,64.29,31" style="stroke:#181818;stroke-width:1.0;"/></g><!--MD5=[c46fe57dbcf5dfb0d556a41f88ce29da]
link DayNode to DayNode--><g id="link_DayNode_DayNode"><path codeLine="11" d="M192.4,10.87 C211.21,9.74 227,16.45 227,31 C227,44.19 214.03,50.94 197.6,51.24 " fill="none" id="DayNode-to-DayNode" style="stroke:#181818;stroke-width:1.0;"/><polygon fill="#181818" points="192.4,51.13,201.306,55.3352,197.3987,51.2446,201.4893,47.3373,192.4,51.13" style="stroke:#181818;stroke-width:1.0;"/></g><!--MD5=[7a2c42f7cc66d4840b5f29afaf35db9c]
reverse link DayNode to Diet--><g id="link_DayNode_Diet"><path codeLine="12" d="M145.5,60.13 C145.5,77.15 145.5,98.6 145.5,114.68 " fill="none" id="DayNode-backto-Diet" style="stroke:#181818;stroke-width:1.0;"/><polygon fill="#181818" points="145.5,55,141.5,64,145.5,60,149.5,64,145.5,55" style="stroke:#181818;stroke-width:1.0;"/></g><!--MD5=[aec97be01881235c70948abe2285e511]
@startuml
class Day
class DayNode
class Diet

note right
    Responsable del
    CRUD de días
end note

Day <- -r- - DayNode
DayNode - -> DayNode
Diet -u-> DayNode
@enduml

PlantUML version 1.2022.7(Mon Aug 22 19:01:30 CEST 2022)
(GPL source distribution)
Java Runtime: OpenJDK Runtime Environment
JVM: OpenJDK 64-Bit Server VM
Default Encoding: UTF-8
Language: es
Country: ES
--></g></svg>