<?xml version="1.0" encoding="UTF-8" standalone="no"?><svg xmlns="http://www.w3.org/2000/svg" xmlns:xlink="http://www.w3.org/1999/xlink" contentStyleType="text/css" height="170px" preserveAspectRatio="none" style="width:418px;height:170px;background:#FFFFFF;" version="1.1" viewBox="0 0 418 170" width="418px" zoomAndPan="magnify"><defs/><g><!--MD5=[c6fa485513e6b6ca8315c1a18ca002fb]
class Alimento--><g id="elem_Alimento"><rect codeLine="1" fill="#F1F1F1" height="48" id="Alimento" rx="2.5" ry="2.5" style="stroke:#181818;stroke-width:0.5;" width="92" x="7" y="7"/><ellipse cx="22" cy="23" fill="#ADD1B2" rx="11" ry="11" style="stroke:#181818;stroke-width:1.0;"/><path d="M21.4688,29.9219 Q19.7188,29.9219 18.5781,29.1875 Q17.4531,28.4375 16.8906,27.0938 Q16.3438,25.7344 16.3438,23.9375 Q16.3438,21.9063 17,20.4531 Q17.6563,19 18.9375,18.2188 Q20.2188,17.4375 22.0938,17.4375 Q22.9844,17.4375 23.6563,17.625 Q24.3281,17.7969 25.0156,18.1406 L24.2031,20.1563 Q23.5781,19.8438 23.0313,19.7188 Q22.5,19.5938 22.0156,19.5938 Q20.8438,19.5938 20.1406,20.125 Q19.4375,20.6563 19.1406,21.6094 Q18.8438,22.5625 18.8438,23.8281 Q18.8438,25.8438 19.5625,26.8125 Q20.2813,27.7656 21.875,27.7656 Q22.4688,27.7656 23.0938,27.6094 Q23.7188,27.4531 24.5469,27.0781 L24.5469,29.2969 Q23.8125,29.6094 23.0156,29.7656 Q22.2344,29.9219 21.4688,29.9219 Z " fill="#000000"/><text fill="#000000" font-family="sans-serif" font-size="14" lengthAdjust="spacing" textLength="60" x="36" y="28.432">Alimento</text><line style="stroke:#181818;stroke-width:0.5;" x1="8" x2="98" y1="39" y2="39"/><line style="stroke:#181818;stroke-width:0.5;" x1="8" x2="98" y1="47" y2="47"/></g><!--MD5=[5d8acbb3d03ed249566a41c482d0857b]
class NodoAlimento--><g id="elem_NodoAlimento"><rect codeLine="2" fill="#F1F1F1" height="48" id="NodoAlimento" rx="2.5" ry="2.5" style="stroke:#181818;stroke-width:0.5;" width="128" x="134" y="7"/><ellipse cx="149" cy="23" fill="#ADD1B2" rx="11" ry="11" style="stroke:#181818;stroke-width:1.0;"/><path d="M148.4688,29.9219 Q146.7188,29.9219 145.5781,29.1875 Q144.4531,28.4375 143.8906,27.0938 Q143.3438,25.7344 143.3438,23.9375 Q143.3438,21.9063 144,20.4531 Q144.6563,19 145.9375,18.2188 Q147.2188,17.4375 149.0938,17.4375 Q149.9844,17.4375 150.6563,17.625 Q151.3281,17.7969 152.0156,18.1406 L151.2031,20.1563 Q150.5781,19.8438 150.0313,19.7188 Q149.5,19.5938 149.0156,19.5938 Q147.8438,19.5938 147.1406,20.125 Q146.4375,20.6563 146.1406,21.6094 Q145.8438,22.5625 145.8438,23.8281 Q145.8438,25.8438 146.5625,26.8125 Q147.2813,27.7656 148.875,27.7656 Q149.4688,27.7656 150.0938,27.6094 Q150.7188,27.4531 151.5469,27.0781 L151.5469,29.2969 Q150.8125,29.6094 150.0156,29.7656 Q149.2344,29.9219 148.4688,29.9219 Z " fill="#000000"/><text fill="#000000" font-family="sans-serif" font-size="14" lengthAdjust="spacing" textLength="96" x="163" y="28.432">NodoAlimento</text><line style="stroke:#181818;stroke-width:0.5;" x1="135" x2="261" y1="39" y2="39"/><line style="stroke:#181818;stroke-width:0.5;" x1="135" x2="261" y1="47" y2="47"/></g><!--MD5=[f6c3014a2cfe02480f0eefe550c5f643]
class Ingesta--><g id="elem_Ingesta"><rect codeLine="3" fill="#F1F1F1" height="48" id="Ingesta" rx="2.5" ry="2.5" style="stroke:#181818;stroke-width:0.5;" width="83" x="156.5" y="115"/><ellipse cx="171.5" cy="131" fill="#ADD1B2" rx="11" ry="11" style="stroke:#181818;stroke-width:1.0;"/><path d="M170.9688,137.9219 Q169.2188,137.9219 168.0781,137.1875 Q166.9531,136.4375 166.3906,135.0938 Q165.8438,133.7344 165.8438,131.9375 Q165.8438,129.9063 166.5,128.4531 Q167.1563,127 168.4375,126.2188 Q169.7188,125.4375 171.5938,125.4375 Q172.4844,125.4375 173.1563,125.625 Q173.8281,125.7969 174.5156,126.1406 L173.7031,128.1563 Q173.0781,127.8438 172.5313,127.7188 Q172,127.5938 171.5156,127.5938 Q170.3438,127.5938 169.6406,128.125 Q168.9375,128.6563 168.6406,129.6094 Q168.3438,130.5625 168.3438,131.8281 Q168.3438,133.8438 169.0625,134.8125 Q169.7813,135.7656 171.375,135.7656 Q171.9688,135.7656 172.5938,135.6094 Q173.2188,135.4531 174.0469,135.0781 L174.0469,137.2969 Q173.3125,137.6094 172.5156,137.7656 Q171.7344,137.9219 170.9688,137.9219 Z " fill="#000000"/><text fill="#000000" font-family="sans-serif" font-size="14" lengthAdjust="spacing" textLength="51" x="185.5" y="136.432">Ingesta</text><line style="stroke:#181818;stroke-width:0.5;" x1="157.5" x2="238.5" y1="147" y2="147"/><line style="stroke:#181818;stroke-width:0.5;" x1="157.5" x2="238.5" y1="155" y2="155"/></g><g id="elem_GMN5"><path d="M275,116.5 L275,135 L239.63,139 L275,143 L275,161.912 A0,0 0 0 0 275,161.912 L411,161.912 A0,0 0 0 0 411,161.912 L411,126.5 L401,116.5 L275,116.5 A0,0 0 0 0 275,116.5 " fill="#FEFFDD" style="stroke:#181818;stroke-width:0.5;"/><path d="M401,116.5 L401,126.5 L411,126.5 L401,116.5 " fill="#FEFFDD" style="stroke:#181818;stroke-width:0.5;"/><text fill="#000000" font-family="sans-serif" font-size="13" lengthAdjust="spacing" textLength="97" x="281" y="135.397">Responsable del</text><text fill="#000000" font-family="sans-serif" font-size="13" lengthAdjust="spacing" textLength="115" x="281" y="153.103">CRUD de alimentos</text></g><!--MD5=[f524d6155732a1eb40c7089f2daccec8]
reverse link Alimento to NodoAlimento--><g id="link_Alimento_NodoAlimento"><path codeLine="10" d="M104.32,31 C114.18,31 124.05,31 133.91,31 " fill="none" id="Alimento-backto-NodoAlimento" style="stroke:#181818;stroke-width:1.0;"/><polygon fill="#181818" points="99.16,31,108.16,35,104.16,31,108.16,27,99.16,31" style="stroke:#181818;stroke-width:1.0;"/></g><!--MD5=[072c1eab0869be1fcdba7ef12ec7de64]
link NodoAlimento to NodoAlimento--><g id="link_NodoAlimento_NodoAlimento"><path codeLine="11" d="M262.27,10.78 C281.76,11.29 297,18.03 297,31 C297,42.76 284.49,49.39 267.63,50.91 " fill="none" id="NodoAlimento-to-NodoAlimento" style="stroke:#181818;stroke-width:1.0;"/><polygon fill="#181818" points="262.27,51.22,271.4841,54.6985,267.2618,50.9339,271.0264,46.7116,262.27,51.22" style="stroke:#181818;stroke-width:1.0;"/></g><!--MD5=[d74ec6402008fe1c281b4b2bce419274]
reverse link NodoAlimento to Ingesta--><g id="link_NodoAlimento_Ingesta"><path codeLine="12" d="M198,60.13 C198,77.15 198,98.6 198,114.68 " fill="none" id="NodoAlimento-backto-Ingesta" style="stroke:#181818;stroke-width:1.0;"/><polygon fill="#181818" points="198,55,194,64,198,60,202,64,198,55" style="stroke:#181818;stroke-width:1.0;"/></g><!--MD5=[cd4dc42f4045c24f8110b1fe9d712825]
@startuml
class Alimento
class NodoAlimento
class Ingesta

note right
    Responsable del
    CRUD de alimentos
end note

Alimento <- -r- - NodoAlimento
NodoAlimento - -> NodoAlimento
Ingesta -u-> NodoAlimento

@enduml

PlantUML version 1.2022.7(Mon Aug 22 19:01:30 CEST 2022)
(GPL source distribution)
Java Runtime: OpenJDK Runtime Environment
JVM: OpenJDK 64-Bit Server VM
Default Encoding: UTF-8
Language: es
Country: ES
--></g></svg>